<svg xmlns="http://www.w3.org/2000/svg" width="69" height="39" viewBox="0 0 69 39">
    <path fill="#FFF" fill-rule="evenodd" d="M42.885 15.6c-1.018-.292.146-3.184.463-3.721.149-.253.358-.623.71-.66.37-.037.564.22.628.514.215.917-1.024 4.091-1.801 3.868zm-2.33-.042c-.794-.125-.03-3.394.25-3.95.13-.262.328-.39.603-.384a.611.611 0 0 1 .58.47c.283.894-.676 3.959-1.434 3.864zm21.536 5.914a4.958 4.958 0 0 0-.046 1.562c.066.494.173.967.32 1.428.153.46.32.907.5 1.354.187.44.347.888.48 1.335a61.492 61.492 0 0 0 1.936-2.462 31.856 31.856 0 0 0 2.189-3.343c.233-.4.453-.668.667-.814.207-.14.367-.174.487-.1.113.08.16.253.133.527-.02.273-.16.62-.407 1.04-1.034 1.769-1.955 3.157-2.755 4.178-.801 1.014-1.462 1.781-1.976 2.302.034.48-.033.974-.186 1.474-.16.5-.467 1.035-.915 1.602-.553.687-1.074 1.188-1.574 1.515-.5.327-.928.487-1.268.487-.34 0-.58-.147-.714-.447-.134-.3-.12-.728.026-1.275.12-.387.354-.8.715-1.241.36-.44.727-.847 1.114-1.214.447-.434.94-.855 1.475-1.255.066-.28 0-.64-.2-1.074-.2-.434-.434-.901-.701-1.415a49.47 49.47 0 0 1-.788-1.575 4.652 4.652 0 0 1-.46-1.614c-.12-.981-.02-1.795.3-2.43.314-.633.687-1.073 1.121-1.334.434-.26.848-.333 1.228-.213.387.113.594.427.627.927.014.314-.04.6-.167.848-.12.253-.273.467-.46.654a3.5 3.5 0 0 1-.7.573zm-27.525 2.176a9.487 9.487 0 0 1-.213 1.087c-.114.448-.227.881-.354 1.302-.127.427-.233.814-.334 1.167-.1.347-.153.574-.153.674.12 0 .307-.193.574-.587.267-.394.587-.9.954-1.515.367-.62.774-1.314 1.228-2.088a90.12 90.12 0 0 1 1.346-2.254c.15-.332.305-.653.469-.963.44-.834.914-1.468 1.415-1.901.413-.367.807-.594 1.174-.674.367-.087.694-.047.987.113.294.154.534.42.715.788.186.367.3.814.353 1.348.067.754 0 1.54-.193 2.375a9.299 9.299 0 0 1-.848 2.315 6.514 6.514 0 0 1-1.341 1.789c-.514.487-1.068.747-1.648.78-.467.014-.828-.113-1.081-.38-.127.5-.234.988-.307 1.455-.08.467-.12.88-.14 1.24-.014.355.006.648.06.875.06.227.167.36.313.414.234.08.548.013.928-.214.387-.227.807-.554 1.261-.987.46-.434.961-.968 1.495-1.588a35.02 35.02 0 0 0 1.608-2.056 39.812 39.812 0 0 0 1.601-2.342c.504-.778.983-1.568 1.433-2.364a138.075 138.075 0 0 1 1.017-3.587c-.555.066-1.028.126-1.415.173-.394.053-.634.086-.714.1-.254.053-.44.033-.574-.047-.134-.087-.2-.187-.2-.314 0-.126.053-.247.173-.367.113-.113.3-.2.547-.246l2.502-.428c.234-.767.454-1.454.654-2.061.2-.608.367-1.115.501-1.515.333-1.021.707-1.815 1.128-2.389.413-.574.807-.954 1.187-1.128.374-.173.688-.146.948.074.26.227.407.62.44 1.188.014.467-.06.96-.227 1.48a9.788 9.788 0 0 1-.627 1.502c-.247.48-.514.934-.8 1.361-.28.428-.534.781-.748 1.061 1.081-.18 2.262-.38 3.53-.6 1.102-.186 2.209-.377 3.32-.563.2-.589.376-1.141.53-1.66.28-.967.534-1.774.747-2.415.22-.64.447-1.114.681-1.414.234-.3.52-.4.874-.3.38.133.594.406.634.814.047.407-.06.94-.307 1.601-.254.66-.634 1.435-1.141 2.335-.14.25-.29.508-.447.773.917-.154 1.816-.305 2.702-.459a464.68 464.68 0 0 0 5.752-1.014c.66-.114 1.075-.187 1.241-.22.347-.067.581-.007.688.186.106.194.113.427.026.701-.093.274-.266.54-.527.8-.26.261-.58.421-.96.488-.2.033-.648.093-1.329.187-.687.093-1.52.2-2.515.327-.994.127-2.102.26-3.33.413-.93.112-1.873.227-2.83.34-.102.158-.206.319-.313.481-.18.2-.373.26-.573.18-.2-.086-.26-.26-.174-.527l.004-.01c-1.234.148-2.444.296-3.647.45-1.241.154-2.37.294-3.39.408-.133.433-.327 1.08-.587 1.941-.26.861-.534 1.822-.834 2.876-.3 1.061-.608 2.169-.915 3.33a86.003 86.003 0 0 0-.827 3.316 35.336 35.336 0 0 0-.54 2.83c-.114.834-.14 1.44-.074 1.828.6-.407 1.221-1.061 1.855-1.982a35.394 35.394 0 0 0 1.909-3.13 93.115 93.115 0 0 0 1.928-3.676c.64-1.281 1.275-2.482 1.888-3.603.22-.4.434-.668.641-.814.207-.14.374-.174.487-.1.12.08.16.253.14.527-.026.273-.153.62-.387 1.04-.3.568-.647 1.222-1.027 1.962-.387.741-.794 1.522-1.228 2.342-.434.815-.88 1.642-1.348 2.476a60.04 60.04 0 0 1-1.395 2.362 23.285 23.285 0 0 1-1.347 1.989c-.44.587-.855 1.034-1.242 1.354-.467.38-.88.514-1.247.4-.367-.12-.62-.467-.754-1.047-.114-.487-.16-1.094-.134-1.815.02-.727.1-1.535.22-2.416.127-.887.294-1.821.5-2.815a116.3 116.3 0 0 1 .421-1.888c-.219.341-.44.679-.66 1.014a34.72 34.72 0 0 1-2.49 3.336c-.827.967-1.634 1.728-2.428 2.275-.788.554-1.542.788-2.262.707-.48-.053-.828-.36-1.041-.927-.207-.567-.307-1.288-.3-2.155a17.872 17.872 0 0 1 .36-3.178c-.117.192-.233.38-.347.562-.4.647-.767 1.188-1.088 1.641-.327.448-.6.775-.814.975-.4.353-.767.453-1.088.313-.327-.14-.513-.494-.567-1.06a3.77 3.77 0 0 1-.033-.768c.007-.307.027-.62.06-.934a13.16 13.16 0 0 1-.874 1.661 9.063 9.063 0 0 1-1.074 1.428c-.387.407-.781.714-1.182.928-.4.207-.8.253-1.2.133-.368-.113-.594-.447-.688-1-.093-.548-.067-1.222.067-2.016.133-.787.367-1.655.7-2.602.334-.941.741-1.862 1.222-2.763a14.36 14.36 0 0 1 1.668-2.462c.62-.747 1.288-1.328 1.988-1.742.447-.266.861-.42 1.228-.46.367-.047.68-.02.948.073a1.364 1.364 0 0 1 .914.975.75.75 0 0 1-.074.527c-.093.16-.247.26-.467.314a5.605 5.605 0 0 0-2.322 1.12 10.94 10.94 0 0 0-1.942 1.982 15.681 15.681 0 0 0-1.5 2.362 20.428 20.428 0 0 0-1.029 2.302c-.26.708-.42 1.302-.487 1.775-.066.48-.033.741.1.788.167.053.38-.034.64-.247.255-.22.535-.52.822-.914.293-.394.594-.848.894-1.362.3-.52.567-1.047.807-1.58.247-.535.447-1.055.614-1.576.167-.513.267-.967.3-1.348.02-.3.154-.513.4-.64.254-.127.515-.16.788-.1.28.06.527.207.74.44.221.234.301.547.254.948zm6.08-2.776c-.248.167-.501.42-.761.76-.26.348-.508.741-.741 1.188-.234.454-.454.948-.66 1.482a25.404 25.404 0 0 0-.561 1.601c.333.28.694.314 1.087.087.387-.227.734-.6 1.035-1.128.3-.527.52-1.148.654-1.862a5.083 5.083 0 0 0-.054-2.128zM36.614 36.76c.434.2.687.433.767.7.074.267.02.494-.167.674-.18.187-.467.3-.847.354-.387.046-.807-.04-1.274-.274a207.931 207.931 0 0 0-8.488-4.003 139.522 139.522 0 0 0-7.594-3.13c-2.395-.9-4.67-1.675-6.833-2.329a87.104 87.104 0 0 0-6.165-1.628c-.247.888-.507 1.802-.774 2.756a247.75 247.75 0 0 0-.854 3.103c-.1.367-.214.614-.347.74-.134.12-.254.154-.367.087-.107-.066-.18-.227-.22-.48-.047-.247-.02-.574.06-.974.2-.915.393-1.829.587-2.73.193-.9.4-1.821.614-2.775a53.427 53.427 0 0 0-1.628-.314c-.534-.087-1.068-.18-1.602-.26-.013 0-.1-.034-.247-.1a1.263 1.263 0 0 1-.414-.3.708.708 0 0 1-.2-.474c-.006-.187.14-.4.44-.654a26.76 26.76 0 0 1 2.103-1.528 87.786 87.786 0 0 1 2.902-1.849c.334-1.3.714-2.669 1.148-4.103.434-1.435.927-2.97 1.488-4.605.56-1.634 1.201-3.39 1.915-5.258a195.12 195.12 0 0 1 2.456-6.052c.233-.567.533-.854.9-.854s.688.174.975.514c.28.347.48.8.587 1.381.106.574.02 1.161-.26 1.762a499.106 499.106 0 0 0-2.303 4.964 261.219 261.219 0 0 0-1.855 4.13 238.782 238.782 0 0 0-1.501 3.53 93.448 93.448 0 0 0-1.228 3.137c1.321-.801 2.723-1.642 4.204-2.536a977.121 977.121 0 0 0 4.584-2.776 248.48 248.48 0 0 0 4.738-2.982 154.141 154.141 0 0 0 4.677-3.117 108.631 108.631 0 0 0 4.398-3.176 61.91 61.91 0 0 0 3.877-3.203c.367-.313.714-.414 1.047-.287.334.127.587.367.754.728.167.36.214.767.147 1.227-.067.454-.307.841-.72 1.161a84.605 84.605 0 0 1-6.8 4.651 193.38 193.38 0 0 1-7.393 4.358 543.287 543.287 0 0 1-7.407 4.077A191.24 191.24 0 0 0 7.689 21.9c-.234.667-.454 1.32-.674 1.975a52.905 52.905 0 0 0-.627 2.028c3.736.834 8.107 2.129 13.098 3.89 4.998 1.762 10.71 4.084 17.129 6.967zM5.587 23.147c-.534.334-1.055.668-1.562 1.001a46.36 46.36 0 0 0-1.461 1.001c.814.134 1.635.287 2.449.454l.574-2.456z"/>
</svg>
